<?xml version="1.0" standalone="no"?>
<!DOCTYPE svg PUBLIC "-//W3C//DTD SVG 20010904//EN"
 "http://www.w3.org/TR/2001/REC-SVG-20010904/DTD/svg10.dtd">
<svg version="1.0" xmlns="http://www.w3.org/2000/svg"
 width="337.000000pt" height="337.000000pt" viewBox="0 0 337.000000 337.000000"
 preserveAspectRatio="xMidYMid meet">
<metadata>
Created by potrace 1.14, written by Peter Selinger 2001-2017
</metadata>
<g transform="translate(0.000000,337.000000) scale(0.100000,-0.100000)"
fill="#000000" stroke="none">
<path d="M1515 3363 c-280 -25 -575 -139 -825 -316 -106 -76 -297 -267 -371
-372 -163 -230 -270 -497 -307 -765 -17 -119 -7 -437 17 -552 71 -346 247
-663 498 -898 245 -229 523 -369 868 -437 139 -27 464 -24 605 6 475 100 869
373 1117 771 238 383 310 859 197 1303 -190 749 -877 1276 -1649 1265 -60 -1
-128 -3 -150 -5z"/>
</g>
</svg>
